ffmpeg version N-82167-g5e96558 Copyright (c) 2000-2016 the FFmpeg developers
  built with gcc 5.4.0 (Ubuntu 5.4.0-6ubuntu1~16.04.2) 20160609
  configuration: --prefix=/root/ffmpeg_build --pkg-config-flags=--static --extra-cflags=-I/root/ffmpeg_build/include --extra-ldflags=-L/root/ffmpeg_build/lib --bindir=/root/bin --enable-gpl --enable-libass --enable-libfdk-aac --enable-libfreetype --enable-libmp3lame --enable-libopus --enable-libtheora --enable-libvorbis --enable-libx264 --enable-libx265 --enable-nonfree
  libavutil      55. 35.100 / 55. 35.100
  libavcodec     57. 65.100 / 57. 65.100
  libavformat    57. 57.100 / 57. 57.100
  libavdevice    57.  2.100 / 57.  2.100
  libavfilter     6. 66.100 /  6. 66.100
  libswscale      4.  3.100 /  4.  3.100
  libswresample   2.  4.100 /  2.  4.100
  libpostproc    54.  2.100 / 54.  2.100
Input #0, matroska,webm, from '/media/yubikiri/bot/queue/3AnimePahe_Detective_Conan_-_047_720p_Fansub.mkv':
  Metadata:
    title           : 3|Text||0|0
    LANGUAGE        : Undefined
    ENCODER         : Lavf57.57.100
  Duration: 00:24:29.34, start: 0.000000, bitrate: 953 kb/s
    Stream #0:0: Video: mpeg4 (Advanced Simple Profile), yuv420p, 640x480 [SAR 1:1 DAR 4:3], 23.98 fps, 23.98 tbr, 1k tbn, 23.98 tbc (default)
    Metadata:
      DURATION        : 00:24:29.343000000
    Stream #0:1: Audio: mp3, 48000 Hz, stereo, s16p, 128 kb/s (default)
    Metadata:
      DURATION        : 00:24:29.304000000
[libx264 @ 0x2628360] using SAR=1/1
[libx264 @ 0x2628360] using cpu capabilities: MMX2 SSE2Fast SSSE3 SSE4.2 AVX FMA3 AVX2 LZCNT BMI2
[libx264 @ 0x2628360] profile High, level 3.1
[libx264 @ 0x2628360] 264 - core 148 r2643 5c65704 - H.264/MPEG-4 AVC codec - Copyleft 2003-2015 - http://www.videolan.org/x264.html - options: cabac=1 ref=8 deblock=1:1:1 analyse=0x3:0x133 me=umh subme=7 psy=1 psy_rd=0.00:0.00 mixed_ref=1 me_range=8 chroma_me=1 trellis=0 8x8dct=1 cqm=0 deadzone=21,11 fast_pskip=1 chroma_qp_offset=0 threads=8 lookahead_threads=2 sliced_threads=0 nr=0 decimate=1 interlaced=0 bluray_compat=0 constrained_intra=0 bframes=3 b_pyramid=2 b_adapt=2 b_bias=0 direct=1 weightb=1 open_gop=0 weightp=2 keyint=240 keyint_min=24 scenecut=40 intra_refresh=0 rc_lookahead=60 rc=crf mbtree=1 crf=27.0 qcomp=0.60 qpmin=0 qpmax=69 qpstep=4 ip_ratio=1.40 aq=1:1.00
[libfdk_aac @ 0x25bba80] Note, the VBR setting is unsupported and only works with some parameter combinations
Output #0, mp4, to '/media/yubikiri/bot/queue/3AnimePahe_Detective_Conan_-_047_720p_Fansub.mkv_encoded.mp4':
  Metadata:
    encoder         : Lavf57.57.100
    Stream #0:0: Video: h264 (libx264) ([33][0][0][0] / 0x0021), yuv420p, 640x480 [SAR 1:1 DAR 4:3], q=-1--1, 23.98 fps, 24k tbn, 23.98 tbc (default)
    Metadata:
      encoder         : Lavc57.65.100 libx264
    Side data:
      cpb: bitrate max/min/avg: 0/0/0 buffer size: 0 vbv_delay: -1
    Stream #0:1: Audio: aac (libfdk_aac) (HE-AACv2) ([64][0][0][0] / 0x0040), 48000 Hz, stereo, s16, 48 kb/s (default)
    Metadata:
      encoder         : Lavc57.65.100 libfdk_aac
Stream mapping:
  Stream #0:0 -> #0:0 (mpeg4 (native) -> h264 (libx264))
  Stream #0:1 -> #0:1 (mp3 (native) -> aac (libfdk_aac))
Press [q] to stop, [?] for help
frame=  131 fps=0.0 q=32.0 size=     115kB time=00:00:05.61 bitrate= 168.0kbits/s dup=1 drop=0 speed=11.2x    frame=  183 fps=182 q=32.0 size=     323kB time=00:00:07.78 bitrate= 340.0kbits/s dup=1 drop=0 speed=7.76x    frame=  253 fps=167 q=32.0 size=     515kB time=00:00:10.68 bitrate= 394.5kbits/s dup=1 drop=0 speed=7.07x    frame=  330 fps=163 q=32.0 size=     694kB time=00:00:13.93 bitrate= 407.8kbits/s dup=1 drop=0 speed= 6.9x    frame=  406 fps=160 q=32.0 size=     911kB time=00:00:17.08 bitrate= 436.6kbits/s dup=1 drop=0 speed=6.74x    frame=  466 fps=153 q=32.0 size=    1061kB time=00:00:19.56 bitrate= 444.1kbits/s dup=1 drop=0 speed=6.42x    frame=  539 fps=152 q=32.0 size=    1291kB time=00:00:22.63 bitrate= 467.2kbits/s dup=1 drop=0 speed=6.38x    frame=  623 fps=153 q=32.0 size=    1481kB time=00:00:26.13 bitrate= 464.3kbits/s dup=1 drop=0 speed=6.41x    frame=  738 fps=160 q=32.0 size=    1679kB time=00:00:30.95 bitrate= 444.2kbits/s dup=1 drop=0 speed= 6.7x    frame=  795 fps=155 q=32.0 size=    1903kB time=00:00:33.30 bitrate= 468.0kbits/s dup=1 drop=0 speed= 6.5x    frame=  872 fps=155 q=32.0 size=    2125kB time=00:00:36.54 bitrate= 476.4kbits/s dup=1 drop=0 speed=6.48x    frame=  950 fps=155 q=32.0 size=    2326kB time=00:00:39.78 bitrate= 478.9kbits/s dup=1 drop=0 speed=6.48x    frame= 1017 fps=153 q=32.0 size=    2451kB time=00:00:42.56 bitrate= 471.7kbits/s dup=1 drop=0 speed=6.41x    frame= 1096 fps=153 q=32.0 size=    2670kB time=00:00:45.84 bitrate= 477.0kbits/s dup=1 drop=0 speed= 6.4x    frame= 1188 fps=155 q=32.0 size=    2847kB time=00:00:49.68 bitrate= 469.5kbits/s dup=1 drop=0 speed=6.48x    frame= 1268 fps=155 q=32.0 size=    3035kB time=00:00:53.05 bitrate= 468.6kbits/s dup=1 drop=0 speed= 6.5x    frame= 1319 fps=152 q=32.0 size=    3237kB time=00:00:55.19 bitrate= 480.5kbits/s dup=1 drop=0 speed=6.36x    frame= 1364 fps=148 q=32.0 size=    3408kB time=00:00:57.06 bitrate= 489.3kbits/s dup=1 drop=0 speed=6.21x    frame= 1420 fps=147 q=32.0 size=    3660kB time=00:00:59.37 bitrate= 505.1kbits/s dup=1 drop=0 speed=6.13x    frame= 1481 fps=145 q=32.0 size=    3816kB time=00:01:01.93 bitrate= 504.7kbits/s dup=1 drop=0 speed=6.07x    frame= 1534 fps=143 q=32.0 size=    4015kB time=00:01:04.15 bitrate= 512.7kbits/s dup=1 drop=0 speed=5.98x    frame= 1600 fps=142 q=32.0 size=    4196kB time=00:01:06.88 bitrate= 513.9kbits/s dup=1 drop=0 speed=5.96x    frame= 1649 fps=140 q=32.0 size=    4355kB time=00:01:08.92 bitrate= 517.6kbits/s dup=1 drop=0 speed=5.86x    frame= 1706 fps=139 q=32.0 size=    4649kB time=00:01:11.31 bitrate= 534.0kbits/s dup=1 drop=0 speed=5.82x    frame= 1766 fps=138 q=32.0 size=    4798kB time=00:01:13.83 bitrate= 532.4kbits/s dup=1 drop=0 speed=5.79x    frame= 1815 fps=137 q=32.0 size=    5022kB time=00:01:15.88 bitrate= 542.1kbits/s dup=1 drop=0 speed=5.72x    frame= 1866 fps=135 q=32.0 size=    5212kB time=00:01:17.97 bitrate= 547.6kbits/s dup=1 drop=0 speed=5.66x    frame= 1916 fps=134 q=32.0 size=    5395kB time=00:01:20.06 bitrate= 552.0kbits/s dup=1 drop=0 speed= 5.6x    frame= 1969 fps=133 q=32.0 size=    5610kB time=00:01:22.28 bitrate= 558.5kbits/s dup=1 drop=0 speed=5.56x    frame= 2016 fps=132 q=32.0 size=    5786kB time=00:01:24.24 bitrate= 562.6kbits/s dup=1 drop=0 speed= 5.5x    frame= 2063 fps=131 q=32.0 size=    5968kB time=00:01:26.20 bitrate= 567.1kbits/s dup=1 drop=0 speed=5.45x    frame= 2128 fps=130 q=32.0 size=    6139kB time=00:01:28.93 bitrate= 565.4kbits/s dup=1 drop=0 speed=5.45x    frame= 2192 fps=130 q=32.0 size=    6271kB time=00:01:31.62 bitrate= 560.6kbits/s dup=1 drop=0 speed=5.45x    frame= 2319 fps=134 q=32.0 size=    6431kB time=00:01:36.87 bitrate= 543.8kbits/s dup=1 drop=0 speed= 5.6x    frame= 2439 fps=137 q=32.0 size=    6578kB time=00:01:41.86 bitrate= 529.0kbits/s dup=1 drop=0 speed=5.71x    frame= 2475 fps=135 q=32.0 size=    6670kB time=00:01:43.40 bitrate= 528.4kbits/s dup=1 drop=0 speed=5.64x    frame= 2513 fps=133 q=32.0 size=    6745kB time=00:01:44.98 bitrate= 526.4kbits/s dup=1 drop=0 speed=5.57x    frame= 2547 fps=132 q=32.0 size=    6901kB time=00:01:46.39 bitrate= 531.3kbits/s dup=1 drop=0 speed= 5.5x    frame= 2576 fps=130 q=32.0 size=    7019kB time=00:01:47.58 bitrate= 534.4kbits/s dup=1 drop=0 speed=5.42x    frame= 2608 fps=128 q=32.0 size=    7117kB time=00:01:48.95 bitrate= 535.1kbits/s dup=1 drop=0 speed=5.35x    frame= 2652 fps=127 q=32.0 size=    7261kB time=00:01:50.74 bitrate= 537.1kbits/s dup=1 drop=0 speed= 5.3x    frame= 2697 fps=126 q=32.0 size=    7375kB time=00:01:52.66 bitrate= 536.2kbits/s dup=1 drop=0 speed=5.26x    frame= 2748 fps=125 q=32.0 size=    7476kB time=00:01:54.75 bitrate= 533.7kbits/s dup=1 drop=0 speed=5.23x    frame= 2806 fps=125 q=32.0 size=    7590kB time=00:01:57.18 bitrate= 530.6kbits/s dup=1 drop=0 speed=5.22x    frame= 2876 fps=125 q=32.0 size=    7652kB time=00:02:00.12 bitrate= 521.8kbits/s dup=1 drop=0 speed=5.24x    frame= 2924 fps=125 q=32.0 size=    7775kB time=00:02:02.09 bitrate= 521.7kbits/s dup=1 drop=0 speed= 5.2x    frame= 2971 fps=124 q=32.0 size=    7869kB time=00:02:04.09 bitrate= 519.5kbits/s dup=1 drop=0 speed=5.18x    frame= 3019 fps=123 q=32.0 size=    7970kB time=00:02:06.05 bitrate= 517.9kbits/s dup=1 drop=0 speed=5.14x    frame= 3067 fps=123 q=32.0 size=    8059kB time=00:02:08.10 bitrate= 515.4kbits/s dup=1 drop=0 speed=5.12x    frame= 3122 fps=122 q=32.0 size=    8171kB time=00:02:10.36 bitrate= 513.4kbits/s dup=1 drop=0 speed=5.11x    frame= 3168 fps=122 q=29.0 size=    8233kB time=00:02:12.33 bitrate= 509.7kbits/s dup=1 drop=0 speed=5.08x    frame= 3226 fps=121 q=32.0 size=    8363kB time=00:02:14.72 bitrate= 508.5kbits/s dup=1 drop=0 speed=5.07x    frame= 3267 fps=121 q=32.0 size=    8456kB time=00:02:16.42 bitrate= 507.7kbits/s dup=1 drop=0 speed=5.03x    frame= 3316 fps=120 q=32.0 size=    8526kB time=00:02:18.47 bitrate= 504.4kbits/s dup=1 drop=0 speed=5.02x    frame= 3367 fps=120 q=32.0 size=    8595kB time=00:02:20.60 bitrate= 500.8kbits/s dup=1 drop=0 speed=   5x    frame= 3410 fps=119 q=32.0 size=    8672kB time=00:02:22.40 bitrate= 498.9kbits/s dup=1 drop=0 speed=4.98x    frame= 3462 fps=119 q=32.0 size=    8754kB time=00:02:24.53 bitrate= 496.2kbits/s dup=1 drop=0 speed=4.96x    frame= 3498 fps=118 q=32.0 size=    8832kB time=00:02:26.07 bitrate= 495.3kbits/s dup=1 drop=0 speed=4.93x    frame= 3528 fps=117 q=32.0 size=    8894kB time=00:02:27.30 bitrate= 494.6kbits/s dup=1 drop=0 speed=4.88x    frame= 3562 fps=116 q=32.0 size=    8967kB time=00:02:28.71 bitrate= 494.0kbits/s dup=1 drop=0 speed=4.85x    frame= 3603 fps=115 q=32.0 size=    9069kB time=00:02:30.42 bitrate= 493.9kbits/s dup=1 drop=0 speed=4.82x    frame= 3657 fps=115 q=32.0 size=    9157kB time=00:02:32.68 bitrate= 491.3kbits/s dup=1 drop=0 speed= 4.8x    frame= 3711 fps=115 q=32.0 size=    9225kB time=00:02:34.94 bitrate= 487.7kbits/s dup=1 drop=0 speed=4.79x    frame= 3760 fps=115 q=32.0 size=    9334kB time=00:02:36.99 bitrate= 487.1kbits/s dup=1 drop=0 speed=4.78x    frame= 3789 fps=114 q=32.0 size=    9428kB time=00:02:38.18 bitrate= 488.2kbits/s dup=1 drop=0 speed=4.74x    frame= 3818 fps=113 q=32.0 size=    9512kB time=00:02:39.38 bitrate= 488.9kbits/s dup=1 drop=0 speed=4.71x    frame= 3858 fps=112 q=32.0 size=    9620kB time=00:02:41.04 bitrate= 489.4kbits/s dup=1 drop=0 speed=4.69x    frame= 3888 fps=112 q=32.0 size=    9686kB time=00:02:42.32 bitrate= 488.8kbits/s dup=1 drop=0 speed=4.66x    frame= 3934 fps=111 q=32.0 size=    9799kB time=00:02:44.24 bitrate= 488.7kbits/s dup=1 drop=0 speed=4.64x    frame= 3988 fps=111 q=32.0 size=    9869kB time=00:02:46.50 bitrate= 485.6kbits/s dup=1 drop=0 speed=4.64x    frame= 4040 fps=111 q=32.0 size=    9938kB time=00:02:48.68 bitrate= 482.6kbits/s dup=1 drop=0 speed=4.63x    frame= 4068 fps=110 q=32.0 size=    9984kB time=00:02:49.83 bitrate= 481.6kbits/s dup=1 drop=0 speed=4.59x    frame= 4096 fps=109 q=32.0 size=   10041kB time=00:02:50.98 bitrate= 481.1kbits/s dup=1 drop=0 speed=4.55x    frame= 4132 fps=109 q=32.0 size=   10114kB time=00:02:52.48 bitrate= 480.3kbits/s dup=1 drop=0 speed=4.53x    frame= 4155 fps=108 q=32.0 size=   10194kB time=00:02:53.46 bitrate= 481.4kbits/s dup=1 drop=0 speed= 4.5x    frame= 4173 fps=107 q=32.0 size=   10312kB time=00:02:54.23 bitrate= 484.9kbits/s dup=1 drop=0 speed=4.46x    frame= 4226 fps=107 q=32.0 size=   10408kB time=00:02:56.40 bitrate= 483.3kbits/s dup=1 drop=0 speed=4.45x    frame= 4254 fps=106 q=32.0 size=   10525kB time=00:02:57.55 bitrate= 485.6kbits/s dup=1 drop=0 speed=4.43x    frame= 4279 fps=105 q=32.0 size=   10607kB time=00:02:58.62 bitrate= 486.5kbits/s dup=1 drop=0 speed= 4.4x    frame= 4309 fps=105 q=32.0 size=   10707kB time=00:02:59.86 bitrate= 487.7kbits/s dup=1 drop=0 speed=4.37x    frame= 4355 fps=105 q=32.0 size=   10783kB time=00:03:01.78 bitrate= 485.9kbits/s dup=1 drop=0 speed=4.37x    frame= 4436 fps=105 q=32.0 size=   10904kB time=00:03:05.19 bitrate= 482.3kbits/s dup=1 drop=0 speed= 4.4x    frame= 4536 fps=106 q=32.0 size=   11083kB time=00:03:09.37 bitrate= 479.4kbits/s dup=1 drop=0 speed=4.44x    frame= 4659 fps=108 q=32.0 size=   11229kB time=00:03:14.45 bitrate= 473.1kbits/s dup=1 drop=0 speed=4.51x    frame= 4737 fps=109 q=32.0 size=   11446kB time=00:03:17.73 bitrate= 474.2kbits/s dup=1 drop=0 speed=4.53x    frame= 4825 fps=109 q=32.0 size=   11614kB time=00:03:21.40 bitrate= 472.4kbits/s dup=1 drop=0 speed=4.56x    frame= 4926 fps=110 q=32.0 size=   11746kB time=00:03:25.59 bitrate= 468.0kbits/s dup=1 drop=0 speed=4.61x    frame= 5007 fps=111 q=32.0 size=   11937kB time=00:03:29.00 bitrate= 467.9kbits/s dup=1 drop=0 speed=4.63x    frame= 5114 fps=112 q=32.0 size=   12110kB time=00:03:33.44 bitrate= 464.8kbits/s dup=1 drop=0 speed=4.68x    frame= 5223 fps=113 q=32.0 size=   12267kB time=00:03:38.00 bitrate= 461.0kbits/s dup=1 drop=0 speed=4.72x    frame= 5323 fps=114 q=32.0 size=   12359kB time=00:03:42.18 bitrate= 455.7kbits/s dup=1 drop=0 speed=4.74x    frame= 5432 fps=115 q=32.0 size=   12569kB time=00:03:46.71 bitrate= 454.2kbits/s dup=1 drop=0 speed=4.79x    frame= 5569 fps=116 q=32.0 size=   12728kB time=00:03:52.42 bitrate= 448.6kbits/s dup=1 drop=0 speed=4.86x    frame= 5655 fps=117 q=32.0 size=   12920kB time=00:03:56.01 bitrate= 448.5kbits/s dup=1 drop=0 speed=4.88x    frame= 5739 fps=117 q=32.0 size=   13070kB time=00:03:59.51 bitrate= 447.0kbits/s dup=1 drop=0 speed= 4.9x    frame= 5827 fps=118 q=32.0 size=   13265kB time=00:04:03.17 bitrate= 446.9kbits/s dup=1 drop=0 speed=4.93x    frame= 5916 fps=119 q=32.0 size=   13386kB time=00:04:06.89 bitrate= 444.2kbits/s dup=1 drop=0 speed=4.95x    frame= 6003 fps=119 q=32.0 size=   13556kB time=00:04:10.51 bitrate= 443.3kbits/s dup=1 drop=0 speed=4.97x    frame= 6098 fps=120 q=32.0 size=   13718kB time=00:04:14.48 bitrate= 441.6kbits/s dup=1 drop=0 speed=   5x    frame= 6188 fps=120 q=32.0 size=   13841kB time=00:04:18.24 bitrate= 439.1kbits/s dup=1 drop=0 speed=5.02x    frame= 6272 fps=121 q=32.0 size=   14041kB time=00:04:21.73 bitrate= 439.4kbits/s dup=1 drop=0 speed=5.04x    frame= 6371 fps=122 q=32.0 size=   14170kB time=00:04:25.87 bitrate= 436.6kbits/s dup=1 drop=0 speed=5.07x    frame= 6483 fps=122 q=32.0 size=   14325kB time=00:04:30.57 bitrate= 433.7kbits/s dup=1 drop=0 speed=5.11x    frame= 6561 fps=123 q=32.0 size=   14473kB time=00:04:33.81 bitrate= 433.0kbits/s dup=1 drop=0 speed=5.12x    frame= 6629 fps=123 q=32.0 size=   14639kB time=00:04:36.63 bitrate= 433.5kbits/s dup=1 drop=0 speed=5.13x    frame= 6683 fps=123 q=32.0 size=   14802kB time=00:04:38.89 bitrate= 434.8kbits/s dup=1 drop=0 speed=5.12x    frame= 6729 fps=122 q=32.0 size=   14979kB time=00:04:40.81 bitrate= 437.0kbits/s dup=1 drop=0 speed=5.11x    frame= 6795 fps=122 q=32.0 size=   15139kB time=00:04:43.54 bitrate= 437.4kbits/s dup=1 drop=0 speed=5.11x    frame= 6866 fps=123 q=32.0 size=   15288kB time=00:04:46.52 bitrate= 437.1kbits/s dup=1 drop=0 speed=5.12x    frame= 6953 fps=123 q=32.0 size=   15433kB time=00:04:50.15 bitrate= 435.7kbits/s dup=1 drop=0 speed=5.13x    frame= 7041 fps=123 q=32.0 size=   15585kB time=00:04:53.82 bitrate= 434.5kbits/s dup=1 drop=0 speed=5.15x    frame= 7125 fps=124 q=32.0 size=   15691kB time=00:04:57.32 bitrate= 432.3kbits/s dup=1 drop=0 speed=5.17x    frame= 7230 fps=125 q=32.0 size=   15843kB time=00:05:01.71 bitrate= 430.2kbits/s dup=1 drop=0 speed= 5.2x    frame= 7326 fps=125 q=32.0 size=   15960kB time=00:05:05.72 bitrate= 427.6kbits/s dup=1 drop=0 speed=5.22x    frame= 7378 fps=125 q=32.0 size=   16100kB time=00:05:07.86 bitrate= 428.4kbits/s dup=1 drop=0 speed=5.21x    frame= 7457 fps=125 q=32.0 size=   16263kB time=00:05:11.19 bitrate= 428.1kbits/s dup=1 drop=0 speed=5.23x    frame= 7548 fps=126 q=32.0 size=   16401kB time=00:05:14.98 bitrate= 426.5kbits/s dup=1 drop=0 speed=5.25x    frame= 7625 fps=126 q=32.0 size=   16504kB time=00:05:18.18 bitrate= 424.9kbits/s dup=1 drop=0 speed=5.26x    frame= 7711 fps=126 q=32.0 size=   16654kB time=00:05:21.77 bitrate= 424.0kbits/s dup=1 drop=0 speed=5.27x    frame= 7820 fps=127 q=32.0 size=   16764kB time=00:05:26.33 bitrate= 420.8kbits/s dup=1 drop=0 speed= 5.3x    frame= 7923 fps=128 q=32.0 size=   16903kB time=00:05:30.60 bitrate= 418.8kbits/s dup=1 drop=0 speed=5.33x    frame= 7982 fps=128 q=32.0 size=   17004kB time=00:05:33.07 bitrate= 418.2kbits/s dup=1 drop=0 speed=5.32x    frame= 8035 fps=127 q=32.0 size=   17091kB time=00:05:35.29 bitrate= 417.6kbits/s dup=1 drop=0 speed=5.31x    frame= 8099 fps=127 q=32.0 size=   17201kB time=00:05:37.94 bitrate= 417.0kbits/s dup=1 drop=0 speed=5.31x    frame= 8174 fps=128 q=32.0 size=   17310kB time=00:05:41.09 bitrate= 415.7kbits/s dup=1 drop=0 speed=5.32x    frame= 8253 fps=128 q=32.0 size=   17388kB time=00:05:44.38 bitrate= 413.6kbits/s dup=1 drop=0 speed=5.33x    frame= 8295 fps=127 q=32.0 size=   17493kB time=00:05:46.13 bitrate= 414.0kbits/s dup=1 drop=0 speed=5.32x    frame= 8351 fps=127 q=32.0 size=   17573kB time=00:05:48.43 bitrate= 413.1kbits/s dup=1 drop=0 speed=5.31x    frame= 8403 fps=127 q=32.0 size=   17691kB time=00:05:50.65 bitrate= 413.3kbits/s dup=1 drop=0 speed= 5.3x    frame= 8465 fps=127 q=32.0 size=   17801kB time=00:05:53.21 bitrate= 412.8kbits/s dup=1 drop=0 speed= 5.3x    frame= 8511 fps=127 q=32.0 size=   17884kB time=00:05:55.13 bitrate= 412.5kbits/s dup=1 drop=0 speed=5.29x    frame= 8585 fps=127 q=32.0 size=   18007kB time=00:05:58.20 bitrate= 411.8kbits/s dup=1 drop=0 speed=5.29x    frame= 8643 fps=127 q=32.0 size=   18133kB time=00:06:00.64 bitrate= 411.9kbits/s dup=1 drop=0 speed=5.29x    frame= 8699 fps=127 q=32.0 size=   18240kB time=00:06:02.98 bitrate= 411.6kbits/s dup=1 drop=0 speed=5.29x    frame= 8748 fps=126 q=32.0 size=   18313kB time=00:06:05.03 bitrate= 411.0kbits/s dup=1 drop=0 speed=5.28x    frame= 8803 fps=126 q=32.0 size=   18428kB time=00:06:07.29 bitrate= 411.0kbits/s dup=1 drop=0 speed=5.27x    frame= 8846 fps=126 q=32.0 size=   18546kB time=00:06:09.13 bitrate= 411.6kbits/s dup=1 drop=0 speed=5.26x    frame= 8892 fps=126 q=32.0 size=   18623kB time=00:06:11.05 bitrate= 411.2kbits/s dup=1 drop=0 speed=5.25x    frame= 8939 fps=126 q=32.0 size=   18724kB time=00:06:12.97 bitrate= 411.3kbits/s dup=1 drop=0 speed=5.24x    frame= 8985 fps=125 q=32.0 size=   18820kB time=00:06:14.89 bitrate= 411.2kbits/s dup=1 drop=0 speed=5.23x    frame= 9036 fps=125 q=32.0 size=   18902kB time=00:06:17.02 bitrate= 410.7kbits/s dup=1 drop=0 speed=5.22x    frame= 9089 fps=125 q=32.0 size=   18986kB time=00:06:19.24 bitrate= 410.1kbits/s dup=1 drop=0 speed=5.21x    frame= 9144 fps=125 q=32.0 size=   19085kB time=00:06:21.54 bitrate= 409.8kbits/s dup=1 drop=0 speed=5.21x    frame= 9217 fps=125 q=32.0 size=   19159kB time=00:06:24.57 bitrate= 408.1kbits/s dup=1 drop=0 speed=5.21x    frame= 9300 fps=125 q=32.0 size=   19255kB time=00:06:28.03 bitrate= 406.5kbits/s dup=1 drop=0 speed=5.23x    frame= 9397 fps=126 q=32.0 size=   19374kB time=00:06:32.08 bitrate= 404.8kbits/s dup=1 drop=0 speed=5.24x    frame= 9468 fps=126 q=32.0 size=   19458kB time=00:06:35.07 bitrate= 403.5kbits/s dup=1 drop=0 speed=5.25x    frame= 9545 fps=126 q=32.0 size=   19533kB time=00:06:38.27 bitrate= 401.8kbits/s dup=1 drop=0 speed=5.26x    frame= 9603 fps=126 q=32.0 size=   19651kB time=00:06:40.66 bitrate= 401.8kbits/s dup=1 drop=0 speed=5.25x    frame= 9674 fps=126 q=32.0 size=   19728kB time=00:06:43.64 bitrate= 400.4kbits/s dup=1 drop=0 speed=5.26x    frame= 9737 fps=126 q=32.0 size=   19837kB time=00:06:46.25 bitrate= 400.0kbits/s dup=1 drop=0 speed=5.26x    frame= 9803 fps=126 q=32.0 size=   19965kB time=00:06:49.02 bitrate= 399.9kbits/s dup=1 drop=0 speed=5.26x    frame= 9869 fps=126 q=32.0 size=   20049kB time=00:06:51.75 bitrate= 398.9kbits/s dup=1 drop=0 speed=5.26x    frame= 9937 fps=126 q=32.0 size=   20161kB time=00:06:54.61 bitrate= 398.3kbits/s dup=1 drop=0 speed=5.26x    frame=10005 fps=126 q=32.0 size=   20236kB time=00:06:57.47 bitrate= 397.1kbits/s dup=1 drop=0 speed=5.26x    frame=10078 fps=126 q=32.0 size=   20340kB time=00:07:00.50 bitrate= 396.3kbits/s dup=1 drop=0 speed=5.27x    frame=10154 fps=126 q=32.0 size=   20439kB time=00:07:03.65 bitrate= 395.2kbits/s dup=1 drop=0 speed=5.27x    frame=10225 fps=127 q=32.0 size=   20530kB time=00:07:06.60 bitrate= 394.2kbits/s dup=1 drop=0 speed=5.28x    frame=10290 fps=127 q=32.0 size=   20640kB time=00:07:09.33 bitrate= 393.8kbits/s dup=1 drop=0 speed=5.28x    frame=10355 fps=126 q=32.0 size=   20746kB time=00:07:12.06 bitrate= 393.4kbits/s dup=1 drop=0 speed=5.28x    frame=10410 fps=126 q=32.0 size=   20843kB time=00:07:14.36 bitrate= 393.1kbits/s dup=1 drop=0 speed=5.27x    frame=10468 fps=126 q=32.0 size=   20965kB time=00:07:16.75 bitrate= 393.2kbits/s dup=1 drop=0 speed=5.27x    frame=10514 fps=126 q=32.0 size=   21052kB time=00:07:18.67 bitrate= 393.1kbits/s dup=1 drop=0 speed=5.26x    frame=10559 fps=126 q=32.0 size=   21165kB time=00:07:20.55 bitrate= 393.6kbits/s dup=1 drop=0 speed=5.25x    frame=10606 fps=126 q=32.0 size=   21295kB time=00:07:22.51 bitrate= 394.2kbits/s dup=1 drop=0 speed=5.24x    frame=10678 fps=126 q=32.0 size=   21362kB time=00:07:25.50 bitrate= 392.8kbits/s dup=1 drop=0 speed=5.25x    frame=10745 fps=126 q=32.0 size=   21472kB time=00:07:28.32 bitrate= 392.4kbits/s dup=1 drop=0 speed=5.25x    frame=10815 fps=126 q=32.0 size=   21579kB time=00:07:31.26 bitrate= 391.7kbits/s dup=1 drop=0 speed=5.25x    frame=10886 fps=126 q=32.0 size=   21685kB time=00:07:34.20 bitrate= 391.1kbits/s dup=1 drop=0 speed=5.25x    frame=10949 fps=126 q=32.0 size=   21763kB time=00:07:36.81 bitrate= 390.3kbits/s dup=1 drop=0 speed=5.25x    frame=11010 fps=126 q=32.0 size=   21856kB time=00:07:39.37 bitrate= 389.8kbits/s dup=1 drop=0 speed=5.25x    frame=11064 fps=126 q=32.0 size=   21961kB time=00:07:41.63 bitrate= 389.7kbits/s dup=1 drop=0 speed=5.25x    frame=11117 fps=126 q=32.0 size=   22058kB time=00:07:43.80 bitrate= 389.6kbits/s dup=1 drop=0 speed=5.24x    frame=11151 fps=125 q=32.0 size=   22128kB time=00:07:45.25 bitrate= 389.6kbits/s dup=1 drop=0 speed=5.23x    frame=11186 fps=125 q=32.0 size=   22210kB time=00:07:46.71 bitrate= 389.8kbits/s dup=1 drop=0 speed=5.21x    frame=11219 fps=125 q=32.0 size=   22291kB time=00:07:48.07 bitrate= 390.1kbits/s dup=1 drop=0 speed= 5.2x    frame=11294 fps=125 q=32.0 size=   22423kB time=00:07:51.19 bitrate= 389.8kbits/s dup=1 drop=0 speed=5.21x    frame=11354 fps=125 q=32.0 size=   22495kB time=00:07:53.70 bitrate= 389.0kbits/s dup=1 drop=0 speed= 5.2x    frame=11410 fps=125 q=32.0 size=   22622kB time=00:07:56.05 bitrate= 389.3kbits/s dup=1 drop=0 speed= 5.2x    frame=11484 fps=125 q=32.0 size=   22733kB time=00:07:59.12 bitrate= 388.7kbits/s dup=1 drop=0 speed=5.21x    frame=11574 fps=125 q=32.0 size=   22803kB time=00:08:02.92 bitrate= 386.8kbits/s dup=1 drop=0 speed=5.22x    frame=11662 fps=125 q=32.0 size=   22881kB time=00:08:06.55 bitrate= 385.2kbits/s dup=1 drop=0 speed=5.23x    frame=11735 fps=125 q=32.0 size=   22989kB time=00:08:09.57 bitrate= 384.7kbits/s dup=1 drop=0 speed=5.23x    frame=11813 fps=126 q=32.0 size=   23115kB time=00:08:12.86 bitrate= 384.2kbits/s dup=1 drop=0 speed=5.24x    frame=11895 fps=126 q=32.0 size=   23234kB time=00:08:16.27 bitrate= 383.5kbits/s dup=1 drop=0 speed=5.25x    frame=11988 fps=126 q=32.0 size=   23348kB time=00:08:20.20 bitrate= 382.4kbits/s dup=1 drop=0 speed=5.26x    frame=12093 fps=127 q=32.0 size=   23449kB time=00:08:24.51 bitrate= 380.8kbits/s dup=1 drop=0 speed=5.28x    frame=12195 fps=127 q=32.0 size=   23542kB time=00:08:28.77 bitrate= 379.1kbits/s dup=1 drop=0 speed= 5.3x    frame=12281 fps=127 q=32.0 size=   23632kB time=00:08:32.36 bitrate= 377.8kbits/s dup=1 drop=0 speed=5.31x    frame=12358 fps=127 q=32.0 size=   23707kB time=00:08:35.60 bitrate= 376.7kbits/s dup=1 drop=0 speed=5.31x    frame=12442 fps=127 q=32.0 size=   23817kB time=00:08:39.10 bitrate= 375.9kbits/s dup=1 drop=0 speed=5.32x    frame=12530 fps=128 q=32.0 size=   23925kB time=00:08:42.77 bitrate= 374.9kbits/s dup=1 drop=0 speed=5.33x    frame=12605 fps=128 q=32.0 size=   24020kB time=00:08:45.88 bitrate= 374.2kbits/s dup=1 drop=0 speed=5.33x    frame=12666 fps=128 q=32.0 size=   24169kB time=00:08:48.44 bitrate= 374.7kbits/s dup=1 drop=0 speed=5.33x    frame=12765 fps=128 q=32.0 size=   24255kB time=00:08:52.54 bitrate= 373.1kbits/s dup=1 drop=0 speed=5.35x    frame=12851 fps=128 q=32.0 size=   24388kB time=00:08:56.17 bitrate= 372.6kbits/s dup=1 drop=0 speed=5.35x    frame=12944 fps=129 q=32.0 size=   24505kB time=00:09:00.01 bitrate= 371.7kbits/s dup=1 drop=0 speed=5.36x    frame=12987 fps=128 q=32.0 size=   24629kB time=00:09:01.80 bitrate= 372.4kbits/s dup=1 drop=0 speed=5.35x    frame=13049 fps=128 q=32.0 size=   24748kB time=00:09:04.40 bitrate= 372.4kbits/s dup=1 drop=0 speed=5.35x    frame=13118 fps=128 q=32.0 size=   24843kB time=00:09:07.30 bitrate= 371.9kbits/s dup=1 drop=0 speed=5.35x    frame=13198 fps=128 q=32.0 size=   24899kB time=00:09:10.63 bitrate= 370.4kbits/s dup=1 drop=0 speed=5.36x    frame=13262 fps=128 q=32.0 size=   25037kB time=00:09:13.28 bitrate= 370.7kbits/s dup=1 drop=0 speed=5.36x    frame=13339 fps=129 q=32.0 size=   25139kB time=00:09:16.52 bitrate= 370.1kbits/s dup=1 drop=0 speed=5.36x    frame=13427 fps=129 q=32.0 size=   25235kB time=00:09:20.19 bitrate= 369.0kbits/s dup=1 drop=0 speed=5.37x    frame=13514 fps=129 q=32.0 size=   25364kB time=00:09:23.81 bitrate= 368.5kbits/s dup=1 drop=0 speed=5.38x    frame=13612 fps=129 q=32.0 size=   25450kB time=00:09:27.87 bitrate= 367.1kbits/s dup=1 drop=0 speed=5.39x    frame=13709 fps=130 q=32.0 size=   25574kB time=00:09:31.92 bitrate= 366.3kbits/s dup=1 drop=0 speed=5.41x    frame=13802 fps=130 q=32.0 size=   25676kB time=00:09:35.80 bitrate= 365.3kbits/s dup=1 drop=0 speed=5.42x    frame=13885 fps=130 q=32.0 size=   25816kB time=00:09:39.30 bitrate= 365.1kbits/s dup=1 drop=0 speed=5.42x    frame=13982 fps=130 q=32.0 size=   25915kB time=00:09:43.36 bitrate= 363.9kbits/s dup=1 drop=0 speed=5.44x    frame=14072 fps=131 q=32.0 size=   26002kB time=00:09:47.07 bitrate= 362.8kbits/s dup=1 drop=0 speed=5.45x    frame=14156 fps=131 q=32.0 size=   26144kB time=00:09:50.57 bitrate= 362.7kbits/s dup=1 drop=0 speed=5.45x    frame=14243 fps=131 q=32.0 size=   26255kB time=00:09:54.19 bitrate= 362.0kbits/s dup=1 drop=0 speed=5.46x    frame=14308 fps=131 q=32.0 size=   26337kB time=00:09:56.92 bitrate= 361.4kbits/s dup=1 drop=0 speed=5.46x    frame=14377 fps=131 q=32.0 size=   26467kB time=00:09:59.78 bitrate= 361.5kbits/s dup=1 drop=0 speed=5.46x    frame=14435 fps=131 q=32.0 size=   26570kB time=00:10:02.21 bitrate= 361.4kbits/s dup=1 drop=0 speed=5.46x    frame=14506 fps=131 q=32.0 size=   26672kB time=00:10:05.16 bitrate= 361.1kbits/s dup=1 drop=0 speed=5.46x    frame=14557 fps=131 q=32.0 size=   26753kB time=00:10:07.33 bitrate= 360.9kbits/s dup=1 drop=0 speed=5.45x    frame=14608 fps=131 q=32.0 size=   26823kB time=00:10:09.47 bitrate= 360.5kbits/s dup=1 drop=0 speed=5.45x    frame=14681 fps=131 q=32.0 size=   26973kB time=00:10:12.45 bitrate= 360.8kbits/s dup=1 drop=0 speed=5.45x    frame=14747 fps=131 q=32.0 size=   27062kB time=00:10:15.23 bitrate= 360.3kbits/s dup=1 drop=0 speed=5.45x    frame=14806 fps=131 q=32.0 size=   27192kB time=00:10:17.70 bitrate= 360.6kbits/s dup=1 drop=0 speed=5.45x    frame=14867 fps=131 q=32.0 size=   27313kB time=00:10:20.26 bitrate= 360.7kbits/s dup=1 drop=0 speed=5.45x    frame=14954 fps=131 q=32.0 size=   27425kB time=00:10:23.85 bitrate= 360.1kbits/s dup=1 drop=0 speed=5.45x    frame=15041 fps=131 q=32.0 size=   27516kB time=00:10:27.47 bitrate= 359.2kbits/s dup=1 drop=0 speed=5.46x    frame=15117 fps=131 q=32.0 size=   27611kB time=00:10:30.67 bitrate= 358.6kbits/s dup=1 drop=0 speed=5.47x    frame=15198 fps=131 q=32.0 size=   27742kB time=00:10:34.04 bitrate= 358.4kbits/s dup=1 drop=0 speed=5.47x    frame=15275 fps=131 q=32.0 size=   27862kB time=00:10:37.24 bitrate= 358.2kbits/s dup=1 drop=0 speed=5.48x    frame=15355 fps=131 q=32.0 size=   27949kB time=00:10:40.57 bitrate= 357.4kbits/s dup=1 drop=0 speed=5.48x    frame=15455 fps=132 q=32.0 size=   28079kB time=00:10:44.75 bitrate= 356.8kbits/s dup=1 drop=0 speed=5.49x    frame=15547 fps=132 q=32.0 size=   28165kB time=00:10:48.59 bitrate= 355.7kbits/s dup=1 drop=0 speed= 5.5x    frame=15617 fps=132 q=32.0 size=   28251kB time=00:10:51.54 bitrate= 355.2kbits/s dup=1 drop=0 speed= 5.5x    frame=15696 fps=132 q=32.0 size=   28365kB time=00:10:54.82 bitrate= 354.9kbits/s dup=1 drop=0 speed=5.51x    frame=15751 fps=132 q=32.0 size=   28510kB time=00:10:57.08 bitrate= 355.4kbits/s dup=1 drop=0 speed= 5.5x    frame=15792 fps=132 q=32.0 size=   28628kB time=00:10:58.83 bitrate= 356.0kbits/s dup=1 drop=0 speed=5.49x    frame=15851 fps=132 q=32.0 size=   28738kB time=00:11:01.27 bitrate= 356.0kbits/s dup=1 drop=0 speed=5.49x    frame=15918 fps=132 q=32.0 size=   28858kB time=00:11:04.04 bitrate= 356.0kbits/s dup=1 drop=0 speed=5.49x    frame=15996 fps=132 q=32.0 size=   28944kB time=00:11:07.32 bitrate= 355.3kbits/s dup=1 drop=0 speed=5.49x    frame=16077 fps=132 q=32.0 size=   29067kB time=00:11:10.69 bitrate= 355.0kbits/s dup=1 drop=0 speed= 5.5x    frame=16172 fps=132 q=32.0 size=   29149kB time=00:11:14.66 bitrate= 353.9kbits/s dup=1 drop=0 speed=5.51x    frame=16227 fps=132 q=32.0 size=   29259kB time=00:11:16.97 bitrate= 354.1kbits/s dup=1 drop=0 speed= 5.5x    frame=16298 fps=132 q=32.0 size=   29389kB time=00:11:19.91 bitrate= 354.1kbits/s dup=1 drop=0 speed=5.51x    frame=16370 fps=132 q=32.0 size=   29507kB time=00:11:22.90 bitrate= 354.0kbits/s dup=1 drop=0 speed=5.51x    frame=16419 fps=132 q=32.0 size=   29609kB time=00:11:24.95 bitrate= 354.1kbits/s dup=1 drop=0 speed= 5.5x    frame=16465 fps=132 q=32.0 size=   29707kB time=00:11:26.87 bitrate= 354.3kbits/s dup=1 drop=0 speed=5.49x    frame=16527 fps=132 q=32.0 size=   29828kB time=00:11:29.47 bitrate= 354.4kbits/s dup=1 drop=0 speed=5.49x    frame=16584 fps=132 q=32.0 size=   29954kB time=00:11:31.81 bitrate= 354.7kbits/s dup=1 drop=0 speed=5.49x    frame=16652 fps=132 q=32.0 size=   30022kB time=00:11:34.67 bitrate= 354.0kbits/s dup=1 drop=0 speed=5.49x    frame=16703 fps=131 q=32.0 size=   30145kB time=00:11:36.81 bitrate= 354.4kbits/s dup=1 drop=0 speed=5.48x    frame=16756 fps=131 q=32.0 size=   30214kB time=00:11:39.03 bitrate= 354.1kbits/s dup=1 drop=0 speed=5.48x    frame=16835 fps=131 q=32.0 size=   30323kB time=00:11:42.31 bitrate= 353.7kbits/s dup=1 drop=0 speed=5.48x    frame=16898 fps=131 q=32.0 size=   30413kB time=00:11:44.96 bitrate= 353.4kbits/s dup=1 drop=0 speed=5.48x    frame=16950 fps=131 q=32.0 size=   30538kB time=00:11:47.09 bitrate= 353.8kbits/s dup=1 drop=0 speed=5.48x    frame=17015 fps=131 q=29.0 size=   30603kB time=00:11:49.82 bitrate= 353.2kbits/s dup=1 drop=0 speed=5.48x    frame=17076 fps=131 q=32.0 size=   30745kB time=00:11:52.34 bitrate= 353.6kbits/s dup=1 drop=0 speed=5.48x    frame=17149 fps=131 q=32.0 size=   30812kB time=00:11:55.41 bitrate= 352.8kbits/s dup=1 drop=0 speed=5.48x    frame=17239 fps=132 q=32.0 size=   30934kB time=00:11:59.16 bitrate= 352.4kbits/s dup=1 drop=0 speed=5.49x    frame=17312 fps=132 q=32.0 size=   31035kB time=00:12:02.19 bitrate= 352.0kbits/s dup=1 drop=0 speed=5.49x    frame=17359 fps=131 q=32.0 size=   31128kB time=00:12:04.16 bitrate= 352.1kbits/s dup=1 drop=0 speed=5.48x    frame=17424 fps=131 q=32.0 size=   31229kB time=00:12:06.89 bitrate= 351.9kbits/s dup=1 drop=0 speed=5.48x    frame=17499 fps=131 q=32.0 size=   31357kB time=00:12:10.04 bitrate= 351.9kbits/s dup=1 drop=0 speed=5.49x    frame=17575 fps=132 q=32.0 size=   31460kB time=00:12:13.16 bitrate= 351.5kbits/s dup=1 drop=0 speed=5.49x    frame=17643 fps=132 q=32.0 size=   31587kB time=00:12:16.02 bitrate= 351.6kbits/s dup=1 drop=0 speed=5.49x    frame=17718 fps=132 q=32.0 size=   31703kB time=00:12:19.13 bitrate= 351.4kbits/s dup=1 drop=0 speed=5.49x    frame=17764 fps=131 q=32.0 size=   31778kB time=00:12:21.05 bitrate= 351.3kbits/s dup=1 drop=0 speed=5.49x    frame=17812 fps=131 q=32.0 size=   31850kB time=00:12:23.06 bitrate= 351.1kbits/s dup=1 drop=0 speed=5.48x    frame=17863 fps=131 q=32.0 size=   31931kB time=00:12:25.19 bitrate= 351.0kbits/s dup=1 drop=0 speed=5.47x    frame=17909 fps=131 q=32.0 size=   32035kB time=00:12:27.11 bitrate= 351.3kbits/s dup=1 drop=0 speed=5.47x    frame=17956 fps=131 q=32.0 size=   32121kB time=00:12:29.07 bitrate= 351.3kbits/s dup=1 drop=0 speed=5.46x    frame=18005 fps=131 q=32.0 size=   32196kB time=00:12:31.12 bitrate= 351.1kbits/s dup=1 drop=0 speed=5.46x    frame=18068 fps=131 q=32.0 size=   32322kB time=00:12:33.77 bitrate= 351.3kbits/s dup=1 drop=0 speed=5.46x    frame=18127 fps=131 q=32.0 size=   32446kB time=00:12:36.20 bitrate= 351.5kbits/s dup=1 drop=0 speed=5.45x    frame=18216 fps=131 q=32.0 size=   32599kB time=00:12:39.91 bitrate= 351.4kbits/s dup=1 drop=0 speed=5.46x    frame=18317 fps=131 q=32.0 size=   32705kB time=00:12:44.13 bitrate= 350.6kbits/s dup=1 drop=0 speed=5.47x    frame=18414 fps=131 q=32.0 size=   32823kB time=00:12:48.15 bitrate= 350.0kbits/s dup=1 drop=0 speed=5.48x    frame=18508 fps=132 q=32.0 size=   32945kB time=00:12:52.11 bitrate= 349.5kbits/s dup=1 drop=0 speed=5.49x    frame=18589 fps=132 q=32.0 size=   33095kB time=00:12:55.44 bitrate= 349.6kbits/s dup=1 drop=0 speed=5.49x    frame=18657 fps=132 q=32.0 size=   33240kB time=00:12:58.30 bitrate= 349.9kbits/s dup=1 drop=0 speed=5.49x    frame=18717 fps=132 q=32.0 size=   33325kB time=00:13:00.82 bitrate= 349.6kbits/s dup=1 drop=0 speed=5.49x    frame=18822 fps=132 q=32.0 size=   33450kB time=00:13:05.17 bitrate= 349.0kbits/s dup=1 drop=0 speed= 5.5x    frame=18912 fps=132 q=32.0 size=   33555kB time=00:13:08.97 bitrate= 348.4kbits/s dup=1 drop=0 speed=5.51x    frame=18995 fps=132 q=32.0 size=   33669kB time=00:13:12.42 bitrate= 348.1kbits/s dup=1 drop=0 speed=5.51x    frame=19065 fps=132 q=32.0 size=   33741kB time=00:13:15.32 bitrate= 347.5kbits/s dup=1 drop=0 speed=5.51x    frame=19090 fps=132 q=32.0 size=   33812kB time=00:13:16.35 bitrate= 347.8kbits/s dup=1 drop=0 speed= 5.5x    frame=19155 fps=132 q=32.0 size=   33911kB time=00:13:19.08 bitrate= 347.6kbits/s dup=1 drop=0 speed= 5.5x    frame=19226 fps=132 q=32.0 size=   34004kB time=00:13:22.02 bitrate= 347.3kbits/s dup=1 drop=0 speed= 5.5x    frame=19303 fps=132 q=32.0 size=   34095kB time=00:13:25.27 bitrate= 346.8kbits/s dup=1 drop=0 speed=5.51x    frame=19388 fps=132 q=32.0 size=   34182kB time=00:13:28.81 bitrate= 346.2kbits/s dup=1 drop=0 speed=5.51x    frame=19457 fps=132 q=32.0 size=   34286kB time=00:13:31.67 bitrate= 346.0kbits/s dup=1 drop=0 speed=5.51x    frame=19507 fps=132 q=32.0 size=   34367kB time=00:13:33.76 bitrate= 346.0kbits/s dup=1 drop=0 speed=5.51x    frame=19566 fps=132 q=32.0 size=   34459kB time=00:13:36.23 bitrate= 345.8kbits/s dup=1 drop=0 speed= 5.5x    frame=19628 fps=132 q=32.0 size=   34573kB time=00:13:38.79 bitrate= 345.9kbits/s dup=1 drop=0 speed= 5.5x    frame=19703 fps=132 q=32.0 size=   34649kB time=00:13:41.91 bitrate= 345.4kbits/s dup=1 drop=0 speed= 5.5x    frame=19777 fps=132 q=32.0 size=   34712kB time=00:13:45.02 bitrate= 344.7kbits/s dup=1 drop=0 speed=5.51x    frame=19835 fps=132 q=32.0 size=   34810kB time=00:13:47.45 bitrate= 344.6kbits/s dup=1 drop=0 speed= 5.5x    frame=19881 fps=132 q=32.0 size=   34898kB time=00:13:49.37 bitrate= 344.7kbits/s dup=1 drop=0 speed= 5.5x    frame=19938 fps=132 q=32.0 size=   34998kB time=00:13:51.72 bitrate= 344.7kbits/s dup=1 drop=0 speed=5.49x    frame=19985 fps=132 q=32.0 size=   35146kB time=00:13:53.72 bitrate= 345.3kbits/s dup=1 drop=0 speed=5.49x    frame=20029 fps=131 q=32.0 size=   35281kB time=00:13:55.52 bitrate= 345.9kbits/s dup=1 drop=0 speed=5.48x    frame=20102 fps=131 q=32.0 size=   35393kB time=00:13:58.59 bitrate= 345.7kbits/s dup=1 drop=0 speed=5.48x    frame=20163 fps=131 q=32.0 size=   35518kB time=00:14:01.11 bitrate= 345.9kbits/s dup=1 drop=0 speed=5.48x    frame=20217 fps=131 q=32.0 size=   35660kB time=00:14:03.37 bitrate= 346.4kbits/s dup=1 drop=0 speed=5.48x    frame=20283 fps=131 q=32.0 size=   35780kB time=00:14:06.10 bitrate= 346.4kbits/s dup=1 drop=0 speed=5.48x    frame=20366 fps=131 q=29.0 size=   35920kB time=00:14:09.60 bitrate= 346.3kbits/s dup=1 drop=0 speed=5.48x    frame=20453 fps=132 q=32.0 size=   36044kB time=00:14:13.22 bitrate= 346.1kbits/s dup=1 drop=0 speed=5.49x    frame=20529 fps=132 q=32.0 size=   36108kB time=00:14:16.38 bitrate= 345.4kbits/s dup=1 drop=0 speed=5.49x    frame=20580 fps=132 q=32.0 size=   36203kB time=00:14:18.51 bitrate= 345.5kbits/s dup=1 drop=0 speed=5.49x    frame=20622 fps=131 q=32.0 size=   36328kB time=00:14:20.26 bitrate= 345.9kbits/s dup=1 drop=0 speed=5.48x    frame=20667 fps=131 q=32.0 size=   36404kB time=00:14:22.14 bitrate= 345.9kbits/s dup=1 drop=0 speed=5.47x    frame=20711 fps=131 q=32.0 size=   36481kB time=00:14:23.97 bitrate= 345.9kbits/s dup=1 drop=0 speed=5.47x    frame=20761 fps=131 q=32.0 size=   36571kB time=00:14:26.02 bitrate= 345.9kbits/s dup=1 drop=0 speed=5.46x    frame=20808 fps=131 q=32.0 size=   36655kB time=00:14:28.03 bitrate= 345.9kbits/s dup=1 drop=0 speed=5.46x    frame=20868 fps=131 q=29.0 size=   36727kB time=00:14:30.50 bitrate= 345.6kbits/s dup=1 drop=0 speed=5.46x    frame=20925 fps=131 q=32.0 size=   36893kB time=00:14:32.89 bitrate= 346.2kbits/s dup=1 drop=0 speed=5.45x    frame=20972 fps=131 q=32.0 size=   36992kB time=00:14:34.85 bitrate= 346.4kbits/s dup=1 drop=0 speed=5.45x    frame=21024 fps=131 q=32.0 size=   37078kB time=00:14:37.03 bitrate= 346.3kbits/s dup=1 drop=0 speed=5.45x    frame=21075 fps=130 q=32.0 size=   37175kB time=00:14:39.16 bitrate= 346.4kbits/s dup=1 drop=0 speed=5.44x    frame=21133 fps=130 q=32.0 size=   37277kB time=00:14:41.60 bitrate= 346.4kbits/s dup=1 drop=0 speed=5.44x    frame=21196 fps=130 q=32.0 size=   37353kB time=00:14:44.20 bitrate= 346.1kbits/s dup=1 drop=0 speed=5.44x    frame=21243 fps=130 q=32.0 size=   37449kB time=00:14:46.16 bitrate= 346.2kbits/s dup=1 drop=0 speed=5.43x    frame=21294 fps=130 q=32.0 size=   37557kB time=00:14:48.29 bitrate= 346.4kbits/s dup=1 drop=0 speed=5.43x    frame=21372 fps=130 q=32.0 size=   37651kB time=00:14:51.54 bitrate= 346.0kbits/s dup=1 drop=0 speed=5.43x    frame=21449 fps=130 q=32.0 size=   37754kB time=00:14:54.74 bitrate= 345.7kbits/s dup=1 drop=0 speed=5.44x    frame=21505 fps=130 q=32.0 size=   37848kB time=00:14:57.08 bitrate= 345.6kbits/s dup=1 drop=0 speed=5.43x    frame=21584 fps=130 q=32.0 size=   37926kB time=00:15:00.37 bitrate= 345.1kbits/s dup=1 drop=0 speed=5.44x    frame=21640 fps=130 q=32.0 size=   38072kB time=00:15:02.72 bitrate= 345.5kbits/s dup=1 drop=0 speed=5.43x    frame=21682 fps=130 q=32.0 size=   38204kB time=00:15:04.47 bitrate= 346.0kbits/s dup=1 drop=0 speed=5.43x    frame=21742 fps=130 q=32.0 size=   38289kB time=00:15:06.98 bitrate= 345.8kbits/s dup=1 drop=0 speed=5.43x    frame=21828 fps=130 q=32.0 size=   38371kB time=00:15:10.57 bitrate= 345.2kbits/s dup=1 drop=0 speed=5.43x    frame=21892 fps=130 q=32.0 size=   38466kB time=00:15:13.25 bitrate= 345.0kbits/s dup=1 drop=0 speed=5.43x    frame=21972 fps=130 q=32.0 size=   38567kB time=00:15:16.58 bitrate= 344.7kbits/s dup=1 drop=0 speed=5.43x    frame=22043 fps=130 q=32.0 size=   38676kB time=00:15:19.53 bitrate= 344.6kbits/s dup=1 drop=0 speed=5.43x    frame=22097 fps=130 q=32.0 size=   38790kB time=00:15:21.79 bitrate= 344.7kbits/s dup=1 drop=0 speed=5.43x    frame=22166 fps=130 q=32.0 size=   38901kB time=00:15:24.65 bitrate= 344.6kbits/s dup=1 drop=0 speed=5.43x    frame=22213 fps=130 q=32.0 size=   39052kB time=00:15:26.61 bitrate= 345.2kbits/s dup=1 drop=0 speed=5.43x    frame=22268 fps=130 q=32.0 size=   39180kB time=00:15:28.96 bitrate= 345.5kbits/s dup=1 drop=0 speed=5.42x    frame=22318 fps=130 q=32.0 size=   39253kB time=00:15:31.00 bitrate= 345.4kbits/s dup=1 drop=0 speed=5.42x    frame=22346 fps=130 q=32.0 size=   39394kB time=00:15:32.20 bitrate= 346.2kbits/s dup=1 drop=0 speed=5.41x    frame=22374 fps=129 q=32.0 size=   39509kB time=00:15:33.31 bitrate= 346.8kbits/s dup=1 drop=0 speed= 5.4x    frame=22402 fps=129 q=32.0 size=   39622kB time=00:15:34.50 bitrate= 347.3kbits/s dup=1 drop=0 speed=5.39x    frame=22446 fps=129 q=32.0 size=   39747kB time=00:15:36.34 bitrate= 347.7kbits/s dup=1 drop=0 speed=5.39x    frame=22503 fps=129 q=32.0 size=   39867kB time=00:15:38.73 bitrate= 347.9kbits/s dup=1 drop=0 speed=5.38x    frame=22564 fps=129 q=32.0 size=   39962kB time=00:15:41.24 bitrate= 347.8kbits/s dup=1 drop=0 speed=5.38x    frame=22620 fps=129 q=32.0 size=   40050kB time=00:15:43.59 bitrate= 347.7kbits/s dup=1 drop=0 speed=5.38x    frame=22659 fps=129 q=32.0 size=   40150kB time=00:15:45.25 bitrate= 348.0kbits/s dup=1 drop=0 speed=5.37x    frame=22692 fps=129 q=32.0 size=   40244kB time=00:15:46.62 bitrate= 348.3kbits/s dup=1 drop=0 speed=5.37x    frame=22737 fps=129 q=32.0 size=   40330kB time=00:15:48.45 bitrate= 348.3kbits/s dup=1 drop=0 speed=5.36x    frame=22787 fps=128 q=32.0 size=   40425kB time=00:15:50.55 bitrate= 348.4kbits/s dup=1 drop=0 speed=5.36x    frame=22827 fps=128 q=32.0 size=   40544kB time=00:15:52.21 bitrate= 348.8kbits/s dup=1 drop=0 speed=5.35x    frame=22868 fps=128 q=32.0 size=   40675kB time=00:15:53.96 bitrate= 349.3kbits/s dup=1 drop=0 speed=5.35x    frame=22916 fps=128 q=32.0 size=   40780kB time=00:15:55.92 bitrate= 349.5kbits/s dup=1 drop=0 speed=5.34x    frame=22954 fps=128 q=32.0 size=   40882kB time=00:15:57.54 bitrate= 349.8kbits/s dup=1 drop=0 speed=5.34x    frame=22997 fps=128 q=32.0 size=   41012kB time=00:15:59.33 bitrate= 350.2kbits/s dup=1 drop=0 speed=5.33x    frame=23051 fps=128 q=32.0 size=   41139kB time=00:16:01.60 bitrate= 350.5kbits/s dup=1 drop=0 speed=5.33x    frame=23122 fps=128 q=32.0 size=   41284kB time=00:16:04.54 bitrate= 350.6kbits/s dup=1 drop=0 speed=5.33x    frame=23220 fps=128 q=32.0 size=   41408kB time=00:16:08.59 bitrate= 350.2kbits/s dup=1 drop=0 speed=5.34x    frame=23279 fps=128 q=32.0 size=   41473kB time=00:16:11.07 bitrate= 349.9kbits/s dup=1 drop=0 speed=5.34x    frame=23349 fps=128 q=32.0 size=   41569kB time=00:16:14.01 bitrate= 349.6kbits/s dup=1 drop=0 speed=5.34x    frame=23411 fps=128 q=32.0 size=   41710kB time=00:16:16.57 bitrate= 349.9kbits/s dup=1 drop=0 speed=5.34x    frame=23504 fps=128 q=32.0 size=   41817kB time=00:16:20.45 bitrate= 349.4kbits/s dup=1 drop=0 speed=5.34x    frame=23566 fps=128 q=32.0 size=   41915kB time=00:16:23.06 bitrate= 349.3kbits/s dup=1 drop=0 speed=5.34x    frame=23628 fps=128 q=32.0 size=   42013kB time=00:16:25.62 bitrate= 349.2kbits/s dup=1 drop=0 speed=5.34x    frame=23698 fps=128 q=32.0 size=   42105kB time=00:16:28.56 bitrate= 348.9kbits/s dup=1 drop=0 speed=5.34x    frame=23771 fps=128 q=32.0 size=   42221kB time=00:16:31.59 bitrate= 348.8kbits/s dup=1 drop=0 speed=5.34x    frame=23871 fps=128 q=32.0 size=   42323kB time=00:16:35.77 bitrate= 348.2kbits/s dup=1 drop=0 speed=5.35x    frame=23963 fps=128 q=32.0 size=   42409kB time=00:16:39.61 bitrate= 347.5kbits/s dup=1 drop=0 speed=5.36x    frame=24091 fps=129 q=32.0 size=   42515kB time=00:16:44.95 bitrate= 346.6kbits/s dup=1 drop=0 speed=5.37x    frame=24218 fps=129 q=32.0 size=   42608kB time=00:16:50.24 bitrate= 345.5kbits/s dup=1 drop=0 speed=5.39x    frame=24319 fps=129 q=32.0 size=   42698kB time=00:16:54.46 bitrate= 344.8kbits/s dup=1 drop=0 speed=5.39x    frame=24399 fps=129 q=32.0 size=   42800kB time=00:16:57.83 bitrate= 344.5kbits/s dup=1 drop=0 speed= 5.4x    frame=24468 fps=129 q=32.0 size=   42906kB time=00:17:00.69 bitrate= 344.4kbits/s dup=1 drop=0 speed= 5.4x    frame=24540 fps=129 q=32.0 size=   43031kB time=00:17:03.68 bitrate= 344.4kbits/s dup=1 drop=0 speed= 5.4x    frame=24622 fps=130 q=32.0 size=   43162kB time=00:17:07.09 bitrate= 344.3kbits/s dup=1 drop=0 speed= 5.4x    frame=24702 fps=130 q=32.0 size=   43257kB time=00:17:10.42 bitrate= 343.9kbits/s dup=1 drop=0 speed=5.41x    frame=24782 fps=130 q=32.0 size=   43390kB time=00:17:13.79 bitrate= 343.8kbits/s dup=1 drop=0 speed=5.41x    frame=24863 fps=130 q=32.0 size=   43482kB time=00:17:17.16 bitrate= 343.4kbits/s dup=1 drop=0 speed=5.41x    frame=24924 fps=130 q=32.0 size=   43549kB time=00:17:19.72 bitrate= 343.1kbits/s dup=1 drop=0 speed=5.41x    frame=25022 fps=130 q=32.0 size=   43676kB time=00:17:23.77 bitrate= 342.8kbits/s dup=1 drop=0 speed=5.42x    frame=25108 fps=130 q=32.0 size=   43755kB time=00:17:27.40 bitrate= 342.2kbits/s dup=1 drop=0 speed=5.42x    frame=25190 fps=130 q=32.0 size=   43868kB time=00:17:30.77 bitrate= 342.0kbits/s dup=1 drop=0 speed=5.42x    frame=25279 fps=130 q=32.0 size=   43948kB time=00:17:34.52 bitrate= 341.4kbits/s dup=1 drop=0 speed=5.43x    frame=25359 fps=130 q=32.0 size=   44075kB time=00:17:37.85 bitrate= 341.3kbits/s dup=1 drop=0 speed=5.43x    frame=25434 fps=130 q=32.0 size=   44161kB time=00:17:40.97 bitrate= 341.0kbits/s dup=1 drop=0 speed=5.44x    frame=25519 fps=130 q=32.0 size=   44255kB time=00:17:44.51 bitrate= 340.6kbits/s dup=1 drop=0 speed=5.44x    frame=25590 fps=130 q=32.0 size=   44367kB time=00:17:47.45 bitrate= 340.5kbits/s dup=1 drop=0 speed=5.44x    frame=25661 fps=130 q=32.0 size=   44457kB time=00:17:50.44 bitrate= 340.2kbits/s dup=1 drop=0 speed=5.44x    frame=25735 fps=130 q=32.0 size=   44565kB time=00:17:53.51 bitrate= 340.1kbits/s dup=1 drop=0 speed=5.44x    frame=25823 fps=131 q=32.0 size=   44682kB time=00:17:57.18 bitrate= 339.8kbits/s dup=1 drop=0 speed=5.45x    frame=25911 fps=131 q=32.0 size=   44800kB time=00:18:00.85 bitrate= 339.5kbits/s dup=1 drop=0 speed=5.45x    frame=25983 fps=131 q=32.0 size=   44902kB time=00:18:03.88 bitrate= 339.4kbits/s dup=1 drop=0 speed=5.45x    frame=26051 fps=131 q=32.0 size=   45013kB time=00:18:06.69 bitrate= 339.3kbits/s dup=1 drop=0 speed=5.45x    frame=26138 fps=131 q=32.0 size=   45138kB time=00:18:10.32 bitrate= 339.1kbits/s dup=1 drop=0 speed=5.46x    frame=26230 fps=131 q=32.0 size=   45230kB time=00:18:14.16 bitrate= 338.6kbits/s dup=1 drop=0 speed=5.46x    frame=26327 fps=131 q=32.0 size=   45406kB time=00:18:18.21 bitrate= 338.7kbits/s dup=1 drop=0 speed=5.47x    frame=26418 fps=131 q=32.0 size=   45498kB time=00:18:22.01 bitrate= 338.2kbits/s dup=1 drop=0 speed=5.47x    frame=26508 fps=131 q=32.0 size=   45598kB time=00:18:25.77 bitrate= 337.8kbits/s dup=1 drop=0 speed=5.48x    frame=26589 fps=131 q=32.0 size=   45679kB time=00:18:29.14 bitrate= 337.4kbits/s dup=1 drop=0 speed=5.48x    frame=26688 fps=132 q=32.0 size=   45792kB time=00:18:33.28 bitrate= 337.0kbits/s dup=1 drop=0 speed=5.49x    frame=26769 fps=132 q=32.0 size=   45887kB time=00:18:36.65 bitrate= 336.6kbits/s dup=1 drop=0 speed=5.49x    frame=26854 fps=132 q=32.0 size=   45967kB time=00:18:40.19 bitrate= 336.2kbits/s dup=1 drop=0 speed= 5.5x    frame=26942 fps=132 q=32.0 size=   46084kB time=00:18:43.86 bitrate= 335.9kbits/s dup=1 drop=0 speed= 5.5x    frame=27027 fps=132 q=32.0 size=   46241kB time=00:18:47.40 bitrate= 336.0kbits/s dup=1 drop=0 speed= 5.5x    frame=27130 fps=132 q=32.0 size=   46361kB time=00:18:51.71 bitrate= 335.6kbits/s dup=1 drop=0 speed=5.51x    frame=27222 fps=132 q=32.0 size=   46468kB time=00:18:55.55 bitrate= 335.2kbits/s dup=1 drop=0 speed=5.52x    frame=27309 fps=132 q=32.0 size=   46587kB time=00:18:59.17 bitrate= 335.0kbits/s dup=1 drop=0 speed=5.52x    frame=27387 fps=132 q=32.0 size=   46705kB time=00:19:02.42 bitrate= 334.9kbits/s dup=1 drop=0 speed=5.52x    frame=27462 fps=132 q=32.0 size=   46779kB time=00:19:05.53 bitrate= 334.5kbits/s dup=1 drop=0 speed=5.52x    frame=27533 fps=132 q=32.0 size=   46896kB time=00:19:08.52 bitrate= 334.5kbits/s dup=1 drop=0 speed=5.52x    frame=27601 fps=132 q=32.0 size=   46998kB time=00:19:11.33 bitrate= 334.4kbits/s dup=1 drop=0 speed=5.52x    frame=27654 fps=132 q=32.0 size=   47102kB time=00:19:13.60 bitrate= 334.5kbits/s dup=1 drop=0 speed=5.52x    frame=27707 fps=132 q=32.0 size=   47261kB time=00:19:15.77 bitrate= 335.0kbits/s dup=1 drop=0 speed=5.52x    frame=27759 fps=132 q=32.0 size=   47402kB time=00:19:17.95 bitrate= 335.3kbits/s dup=1 drop=0 speed=5.52x    frame=27820 fps=132 q=32.0 size=   47519kB time=00:19:20.51 bitrate= 335.4kbits/s dup=1 drop=0 speed=5.51x    frame=27874 fps=132 q=32.0 size=   47616kB time=00:19:22.73 bitrate= 335.5kbits/s dup=1 drop=0 speed=5.51x    frame=27925 fps=132 q=32.0 size=   47710kB time=00:19:24.86 bitrate= 335.5kbits/s dup=1 drop=0 speed=5.51x    frame=27986 fps=132 q=32.0 size=   47839kB time=00:19:27.42 bitrate= 335.7kbits/s dup=1 drop=0 speed=5.51x    frame=28081 fps=132 q=32.0 size=   47946kB time=00:19:31.35 bitrate= 335.3kbits/s dup=1 drop=0 speed=5.51x    frame=28172 fps=132 q=32.0 size=   48051kB time=00:19:35.14 bitrate= 335.0kbits/s dup=1 drop=0 speed=5.52x    frame=28255 fps=132 q=32.0 size=   48125kB time=00:19:38.64 bitrate= 334.5kbits/s dup=1 drop=0 speed=5.52x    frame=28333 fps=132 q=32.0 size=   48188kB time=00:19:41.88 bitrate= 334.0kbits/s dup=1 drop=0 speed=5.52x    frame=28392 fps=132 q=32.0 size=   48296kB time=00:19:44.36 bitrate= 334.1kbits/s dup=1 drop=0 speed=5.52x    frame=28445 fps=132 q=32.0 size=   48419kB time=00:19:46.53 bitrate= 334.3kbits/s dup=1 drop=0 speed=5.52x    frame=28489 fps=132 q=32.0 size=   48524kB time=00:19:48.37 bitrate= 334.5kbits/s dup=1 drop=0 speed=5.51x    frame=28512 fps=132 q=32.0 size=   48732kB time=00:19:49.35 bitrate= 335.7kbits/s dup=1 drop=0 speed= 5.5x    frame=28550 fps=132 q=32.0 size=   48893kB time=00:19:50.93 bitrate= 336.3kbits/s dup=1 drop=0 speed= 5.5x    frame=28610 fps=132 q=32.0 size=   48993kB time=00:19:53.40 bitrate= 336.3kbits/s dup=1 drop=0 speed= 5.5x    frame=28685 fps=132 q=32.0 size=   49122kB time=00:19:56.60 bitrate= 336.3kbits/s dup=1 drop=0 speed= 5.5x    frame=28764 fps=132 q=32.0 size=   49239kB time=00:19:59.85 bitrate= 336.2kbits/s dup=1 drop=0 speed= 5.5x    frame=28847 fps=132 q=32.0 size=   49349kB time=00:20:03.30 bitrate= 336.0kbits/s dup=1 drop=0 speed= 5.5x    frame=28932 fps=132 q=32.0 size=   49439kB time=00:20:06.84 bitrate= 335.6kbits/s dup=1 drop=0 speed=5.51x    frame=29015 fps=132 q=32.0 size=   49524kB time=00:20:10.30 bitrate= 335.2kbits/s dup=1 drop=0 speed=5.51x    frame=29102 fps=132 q=32.0 size=   49667kB time=00:20:13.93 bitrate= 335.2kbits/s dup=1 drop=0 speed=5.52x    frame=29180 fps=132 q=32.0 size=   49743kB time=00:20:17.21 bitrate= 334.8kbits/s dup=1 drop=0 speed=5.52x    frame=29274 fps=132 q=32.0 size=   49859kB time=00:20:21.09 bitrate= 334.5kbits/s dup=1 drop=0 speed=5.52x    frame=29370 fps=133 q=32.0 size=   49935kB time=00:20:25.11 bitrate= 333.9kbits/s dup=1 drop=0 speed=5.53x    frame=29444 fps=133 q=32.0 size=   50045kB time=00:20:28.26 bitrate= 333.8kbits/s dup=1 drop=0 speed=5.53x    frame=29500 fps=133 q=32.0 size=   50147kB time=00:20:30.57 bitrate= 333.8kbits/s dup=1 drop=0 speed=5.53x    frame=29560 fps=132 q=32.0 size=   50234kB time=00:20:33.04 bitrate= 333.7kbits/s dup=1 drop=0 speed=5.53x    frame=29626 fps=132 q=32.0 size=   50343kB time=00:20:35.81 bitrate= 333.7kbits/s dup=1 drop=0 speed=5.53x    frame=29676 fps=132 q=32.0 size=   50451kB time=00:20:37.91 bitrate= 333.9kbits/s dup=1 drop=0 speed=5.52x    frame=29773 fps=133 q=32.0 size=   50546kB time=00:20:41.96 bitrate= 333.4kbits/s dup=1 drop=0 speed=5.53x    frame=29862 fps=133 q=32.0 size=   50666kB time=00:20:45.63 bitrate= 333.2kbits/s dup=1 drop=0 speed=5.53x    frame=29954 fps=133 q=32.0 size=   50770kB time=00:20:49.47 bitrate= 332.9kbits/s dup=1 drop=0 speed=5.54x    frame=30033 fps=133 q=32.0 size=   50869kB time=00:20:52.75 bitrate= 332.6kbits/s dup=1 drop=0 speed=5.54x    frame=30112 fps=133 q=29.0 size=   50954kB time=00:20:56.08 bitrate= 332.3kbits/s dup=1 drop=0 speed=5.54x    frame=30196 fps=133 q=32.0 size=   51078kB time=00:20:59.58 bitrate= 332.2kbits/s dup=1 drop=0 speed=5.54x    frame=30317 fps=133 q=32.0 size=   51182kB time=00:21:04.61 bitrate= 331.5kbits/s dup=1 drop=0 speed=5.55x    frame=30389 fps=133 q=32.0 size=   51244kB time=00:21:07.64 bitrate= 331.2kbits/s dup=1 drop=0 speed=5.56x    frame=30490 fps=133 q=32.0 size=   51325kB time=00:21:11.83 bitrate= 330.6kbits/s dup=1 drop=0 speed=5.56x    frame=30597 fps=134 q=32.0 size=   51421kB time=00:21:16.31 bitrate= 330.0kbits/s dup=1 drop=0 speed=5.57x    frame=30660 fps=133 q=32.0 size=   51526kB time=00:21:18.95 bitrate= 330.0kbits/s dup=1 drop=0 speed=5.57x    frame=30723 fps=133 q=32.0 size=   51609kB time=00:21:21.55 bitrate= 329.9kbits/s dup=1 drop=0 speed=5.57x    frame=30790 fps=133 q=32.0 size=   51709kB time=00:21:24.37 bitrate= 329.8kbits/s dup=1 drop=0 speed=5.57x    frame=30848 fps=133 q=32.0 size=   51825kB time=00:21:26.76 bitrate= 329.9kbits/s dup=1 drop=0 speed=5.57x    frame=30904 fps=133 q=32.0 size=   51977kB time=00:21:29.11 bitrate= 330.3kbits/s dup=1 drop=0 speed=5.56x    frame=30942 fps=133 q=32.0 size=   52118kB time=00:21:30.68 bitrate= 330.8kbits/s dup=1 drop=0 speed=5.56x    frame=30981 fps=133 q=32.0 size=   52256kB time=00:21:32.31 bitrate= 331.3kbits/s dup=1 drop=0 speed=5.55x    frame=31019 fps=133 q=32.0 size=   52387kB time=00:21:33.93 bitrate= 331.7kbits/s dup=1 drop=0 speed=5.55x    frame=31060 fps=133 q=32.0 size=   52511kB time=00:21:35.59 bitrate= 332.0kbits/s dup=1 drop=0 speed=5.54x    frame=31100 fps=133 q=32.0 size=   52626kB time=00:21:37.30 bitrate= 332.3kbits/s dup=1 drop=0 speed=5.54x    frame=31146 fps=133 q=32.0 size=   52785kB time=00:21:39.22 bitrate= 332.8kbits/s dup=1 drop=0 speed=5.53x    frame=31185 fps=133 q=32.0 size=   52881kB time=00:21:40.84 bitrate= 333.0kbits/s dup=1 drop=0 speed=5.53x    frame=31209 fps=132 q=32.0 size=   52999kB time=00:21:41.82 bitrate= 333.5kbits/s dup=1 drop=0 speed=5.52x    frame=31236 fps=132 q=32.0 size=   53138kB time=00:21:42.93 bitrate= 334.1kbits/s dup=1 drop=0 speed=5.51x    frame=31257 fps=132 q=32.0 size=   53248kB time=00:21:43.83 bitrate= 334.6kbits/s dup=1 drop=0 speed=5.51x    frame=31303 fps=132 q=32.0 size=   53373kB time=00:21:45.75 bitrate= 334.9kbits/s dup=1 drop=0 speed= 5.5x    frame=31347 fps=132 q=32.0 size=   53461kB time=00:21:47.58 bitrate= 334.9kbits/s dup=1 drop=0 speed= 5.5x    frame=31388 fps=132 q=32.0 size=   53571kB time=00:21:49.29 bitrate= 335.2kbits/s dup=1 drop=0 speed=5.49x    frame=31441 fps=132 q=32.0 size=   53709kB time=00:21:51.51 bitrate= 335.5kbits/s dup=1 drop=0 speed=5.49x    frame=31492 fps=132 q=32.0 size=   53843kB time=00:21:53.64 bitrate= 335.8kbits/s dup=1 drop=0 speed=5.49x    frame=31531 fps=131 q=32.0 size=   53944kB time=00:21:55.26 bitrate= 336.0kbits/s dup=1 drop=0 speed=5.48x    frame=31583 fps=131 q=32.0 size=   54113kB time=00:21:57.44 bitrate= 336.5kbits/s dup=1 drop=0 speed=5.48x    frame=31621 fps=131 q=32.0 size=   54243kB time=00:21:59.01 bitrate= 336.9kbits/s dup=1 drop=0 speed=5.48x    frame=31665 fps=131 q=32.0 size=   54373kB time=00:22:00.85 bitrate= 337.2kbits/s dup=1 drop=0 speed=5.47x    frame=31709 fps=131 q=32.0 size=   54517kB time=00:22:02.68 bitrate= 337.6kbits/s dup=1 drop=0 speed=5.47x    frame=31759 fps=131 q=32.0 size=   54670kB time=00:22:04.77 bitrate= 338.1kbits/s dup=1 drop=0 speed=5.46x    frame=31802 fps=131 q=32.0 size=   54829kB time=00:22:06.57 bitrate= 338.6kbits/s dup=1 drop=0 speed=5.46x    frame=31842 fps=131 q=32.0 size=   54963kB time=00:22:08.23 bitrate= 339.0kbits/s dup=1 drop=0 speed=5.45x    frame=31908 fps=131 q=32.0 size=   55133kB time=00:22:11.00 bitrate= 339.3kbits/s dup=1 drop=0 speed=5.45x    frame=31966 fps=131 q=32.0 size=   55255kB time=00:22:13.39 bitrate= 339.5kbits/s dup=1 drop=0 speed=5.45x    frame=32024 fps=131 q=32.0 size=   55384kB time=00:22:15.83 bitrate= 339.6kbits/s dup=1 drop=0 speed=5.45x    frame=32072 fps=131 q=32.0 size=   55547kB time=00:22:17.83 bitrate= 340.1kbits/s dup=1 drop=0 speed=5.45x    frame=32133 fps=131 q=32.0 size=   55714kB time=00:22:20.39 bitrate= 340.5kbits/s dup=1 drop=0 speed=5.45x    frame=32188 fps=131 q=32.0 size=   55887kB time=00:22:22.69 bitrate= 341.0kbits/s dup=1 drop=0 speed=5.45x    frame=32226 fps=130 q=32.0 size=   56065kB time=00:22:24.23 bitrate= 341.7kbits/s dup=1 drop=0 speed=5.44x    frame=32265 fps=130 q=32.0 size=   56253kB time=00:22:25.85 bitrate= 342.4kbits/s dup=1 drop=0 speed=5.44x    frame=32313 fps=130 q=32.0 size=   56396kB time=00:22:27.86 bitrate= 342.8kbits/s dup=1 drop=0 speed=5.43x    frame=32359 fps=130 q=32.0 size=   56536kB time=00:22:29.78 bitrate= 343.1kbits/s dup=1 drop=0 speed=5.43x    frame=32392 fps=130 q=32.0 size=   56688kB time=00:22:31.19 bitrate= 343.7kbits/s dup=1 drop=0 speed=5.43x    frame=32438 fps=130 q=32.0 size=   56864kB time=00:22:33.11 bitrate= 344.3kbits/s dup=1 drop=0 speed=5.42x    frame=32487 fps=130 q=32.0 size=   57012kB time=00:22:35.11 bitrate= 344.7kbits/s dup=1 drop=0 speed=5.42x    frame=32541 fps=130 q=32.0 size=   57141kB time=00:22:37.37 bitrate= 344.9kbits/s dup=1 drop=0 speed=5.42x    frame=32615 fps=130 q=32.0 size=   57250kB time=00:22:40.49 bitrate= 344.7kbits/s dup=1 drop=0 speed=5.42x    frame=32672 fps=130 q=32.0 size=   57360kB time=00:22:42.88 bitrate= 344.8kbits/s dup=1 drop=0 speed=5.42x    frame=32727 fps=130 q=32.0 size=   57496kB time=00:22:45.14 bitrate= 345.0kbits/s dup=1 drop=0 speed=5.42x    frame=32787 fps=130 q=32.0 size=   57596kB time=00:22:47.65 bitrate= 345.0kbits/s dup=1 drop=0 speed=5.41x    frame=32886 fps=130 q=32.0 size=   57711kB time=00:22:51.75 bitrate= 344.6kbits/s dup=1 drop=0 speed=5.42x    frame=32970 fps=130 q=32.0 size=   57844kB time=00:22:55.25 bitrate= 344.6kbits/s dup=1 drop=0 speed=5.42x    frame=33033 fps=130 q=32.0 size=   57944kB time=00:22:57.89 bitrate= 344.5kbits/s dup=1 drop=0 speed=5.42x    frame=33084 fps=130 q=32.0 size=   58060kB time=00:23:00.03 bitrate= 344.7kbits/s dup=1 drop=0 speed=5.42x    frame=33172 fps=130 q=32.0 size=   58175kB time=00:23:03.70 bitrate= 344.4kbits/s dup=1 drop=0 speed=5.42x    frame=33224 fps=130 q=32.0 size=   58279kB time=00:23:05.87 bitrate= 344.5kbits/s dup=1 drop=0 speed=5.42x    frame=33300 fps=130 q=32.0 size=   58376kB time=00:23:09.03 bitrate= 344.3kbits/s dup=1 drop=0 speed=5.42x    frame=33371 fps=130 q=32.0 size=   58526kB time=00:23:11.97 bitrate= 344.4kbits/s dup=1 drop=0 speed=5.42x    frame=33435 fps=130 q=32.0 size=   58658kB time=00:23:14.66 bitrate= 344.5kbits/s dup=1 drop=0 speed=5.42x    frame=33514 fps=130 q=32.0 size=   58767kB time=00:23:17.99 bitrate= 344.4kbits/s dup=1 drop=0 speed=5.43x    frame=33596 fps=130 q=32.0 size=   58862kB time=00:23:21.36 bitrate= 344.1kbits/s dup=1 drop=0 speed=5.43x    frame=33661 fps=130 q=32.0 size=   59000kB time=00:23:24.09 bitrate= 344.2kbits/s dup=1 drop=0 speed=5.43x    frame=33735 fps=130 q=32.0 size=   59108kB time=00:23:27.21 bitrate= 344.1kbits/s dup=1 drop=0 speed=5.43x    frame=33807 fps=130 q=32.0 size=   59223kB time=00:23:30.19 bitrate= 344.0kbits/s dup=1 drop=0 speed=5.43x    frame=33874 fps=130 q=32.0 size=   59317kB time=00:23:32.97 bitrate= 343.9kbits/s dup=1 drop=0 speed=5.43x    frame=33932 fps=130 q=32.0 size=   59435kB time=00:23:35.40 bitrate= 344.0kbits/s dup=1 drop=0 speed=5.43x    frame=34011 fps=130 q=32.0 size=   59514kB time=00:23:38.73 bitrate= 343.6kbits/s dup=1 drop=0 speed=5.43x    frame=34069 fps=130 q=32.0 size=   59690kB time=00:23:41.12 bitrate= 344.1kbits/s dup=1 drop=0 speed=5.43x    frame=34123 fps=130 q=32.0 size=   59762kB time=00:23:43.38 bitrate= 343.9kbits/s dup=1 drop=0 speed=5.43x    frame=34166 fps=130 q=32.0 size=   59907kB time=00:23:45.17 bitrate= 344.3kbits/s dup=1 drop=0 speed=5.42x    frame=34214 fps=130 q=32.0 size=   60015kB time=00:23:47.17 bitrate= 344.5kbits/s dup=1 drop=0 speed=5.42x    frame=34268 fps=130 q=32.0 size=   60096kB time=00:23:49.39 bitrate= 344.4kbits/s dup=1 drop=0 speed=5.42x    frame=34328 fps=130 q=32.0 size=   60223kB time=00:23:51.91 bitrate= 344.5kbits/s dup=1 drop=0 speed=5.42x    frame=34370 fps=130 q=32.0 size=   60317kB time=00:23:53.66 bitrate= 344.7kbits/s dup=1 drop=0 speed=5.41x    frame=34415 fps=130 q=32.0 size=   60447kB time=00:23:55.54 bitrate= 344.9kbits/s dup=1 drop=0 speed=5.41x    frame=34464 fps=130 q=32.0 size=   60579kB time=00:23:57.59 bitrate= 345.2kbits/s dup=1 drop=0 speed=5.41x    frame=34520 fps=130 q=32.0 size=   60732kB time=00:23:59.93 bitrate= 345.5kbits/s dup=1 drop=0 speed=5.41x    frame=34569 fps=130 q=32.0 size=   60851kB time=00:24:01.98 bitrate= 345.7kbits/s dup=1 drop=0 speed= 5.4x    frame=34628 fps=130 q=32.0 size=   60964kB time=00:24:04.45 bitrate= 345.7kbits/s dup=1 drop=0 speed= 5.4x    frame=34675 fps=129 q=32.0 size=   61088kB time=00:24:06.37 bitrate= 346.0kbits/s dup=1 drop=0 speed= 5.4x    frame=34723 fps=129 q=32.0 size=   61206kB time=00:24:08.38 bitrate= 346.2kbits/s dup=1 drop=0 speed= 5.4x    frame=34759 fps=129 q=32.0 size=   61318kB time=00:24:09.87 bitrate= 346.5kbits/s dup=1 drop=0 speed=5.39x    frame=34825 fps=129 q=32.0 size=   61462kB time=00:24:12.65 bitrate= 346.6kbits/s dup=1 drop=0 speed=5.39x    frame=34905 fps=129 q=32.0 size=   61651kB time=00:24:15.97 bitrate= 346.9kbits/s dup=1 drop=0 speed=5.39x    frame=34971 fps=129 q=32.0 size=   61759kB time=00:24:18.75 bitrate= 346.8kbits/s dup=1 drop=0 speed=5.39x    frame=35036 fps=129 q=32.0 size=   61918kB time=00:24:21.44 bitrate= 347.1kbits/s dup=1 drop=0 speed=5.39x    frame=35088 fps=129 q=32.0 size=   62014kB time=00:24:23.65 bitrate= 347.1kbits/s dup=1 drop=0 speed=5.39x    frame=35150 fps=129 q=32.0 size=   62152kB time=00:24:26.21 bitrate= 347.3kbits/s dup=1 drop=0 speed=5.39x    frame=35227 fps=129 q=32.0 size=   62252kB time=00:24:29.12 bitrate= 347.1kbits/s dup=1 drop=0 speed=5.39x    [mp4 @ 0x25b7c40] Starting second pass: moving the moov atom to the beginning of the file
frame=35229 fps=129 q=-1.0 Lsize=   63158kB time=00:24:29.33 bitrate= 352.1kbits/s dup=1 drop=0 speed=5.39x    
video:52984kB audio:9338kB subtitle:0kB other streams:0kB global headers:0kB muxing overhead: 1.340569%
[libx264 @ 0x2628360] frame I:323   Avg QP:21.54  size: 19385
[libx264 @ 0x2628360] frame P:11128 Avg QP:25.73  size:  3327
[libx264 @ 0x2628360] frame B:23778 Avg QP:30.08  size:   461
[libx264 @ 0x2628360] consecutive B-frames:  3.0%  7.8% 39.5% 49.7%
[libx264 @ 0x2628360] mb I  I16..4: 25.1% 51.8% 23.0%
[libx264 @ 0x2628360] mb P  I16..4:  3.7%  3.8%  1.2%  P16..4: 35.2%  6.3%  5.4%  0.2%  0.0%    skip:44.2%
[libx264 @ 0x2628360] mb B  I16..4:  0.2%  0.2%  0.1%  B16..8: 18.6%  1.3%  0.2%  direct: 0.4%  skip:79.0%  L0:44.5% L1:53.2% BI: 2.3%
[libx264 @ 0x2628360] 8x8 transform intra:45.9% inter:56.4%
[libx264 @ 0x2628360] coded y,uvDC,uvAC intra: 33.3% 63.5% 17.3% inter: 2.6% 4.9% 0.1%
[libx264 @ 0x2628360] i16 v,h,dc,p: 40% 34% 20%  6%
[libx264 @ 0x2628360] i8 v,h,dc,ddl,ddr,vr,hd,vl,hu: 23% 21% 41%  3%  2%  2%  2%  3%  3%
[libx264 @ 0x2628360] i4 v,h,dc,ddl,ddr,vr,hd,vl,hu: 28% 21% 20%  5%  5%  5%  6%  5%  5%
[libx264 @ 0x2628360] i8c dc,h,v,p: 42% 28% 24%  6%
[libx264 @ 0x2628360] Weighted P-Frames: Y:1.2% UV:0.9%
[libx264 @ 0x2628360] ref P L0: 59.3%  8.9% 13.6%  5.0%  3.9%  3.6%  3.1%  1.9%  0.8%  0.0%
[libx264 @ 0x2628360] ref B L0: 71.4% 12.8%  6.7%  2.9%  2.6%  2.2%  1.5%
[libx264 @ 0x2628360] ref B L1: 91.0%  9.0%
[libx264 @ 0x2628360] kb/s:295.40
